<mxfile host="app.diagrams.net" modified="2023-12-15T18:32:23.793Z" agent="Mozilla/5.0 (Windows NT 10.0; Win64; x64) AppleWebKit/537.36 (KHTML, like Gecko) Chrome/120.0.0.0 Safari/537.36" version="22.1.11" etag="uNVywdpVZYSN-Deq_7Cj" type="github">
  <diagram name="Page-1" id="DSzfuu4YWhMDhIxK239u">
    <mxGraphModel>
      <root>
        <mxCell id="0" />
        <mxCell id="1" parent="0" />
      </root>
    </mxGraphModel>
  </diagram>
</mxfile>
